HIERARCHY
ROOT Hips
{
	OFFSET 0.000000 0.000000 0.000000
	CHANNELS 6 Xposition Yposition Zposition Zrotation Yrotation Xrotation 
	JOINT LHipJoint
	{
		OFFSET 0.000000 0.000000 0.000000
		CHANNELS 3 Zrotation Yrotation Xrotation
		JOINT LeftUpLeg
		{
			OFFSET 1.363060 -1.794630 0.839290
			CHANNELS 3 Zrotation Yrotation Xrotation
			JOINT LeftLeg
			{
				OFFSET 2.448110 -6.726130 0.000000
				CHANNELS 3 Zrotation Yrotation Xrotation
				JOINT LeftFoot
				{
					OFFSET 2.562200 -7.039590 0.000000
					CHANNELS 3 Zrotation Yrotation Xrotation
					JOINT LeftToeBase
					{
						OFFSET 0.157640 -0.433110 2.322550
						CHANNELS 3 Zrotation Yrotation Xrotation
						End Site
						{
							OFFSET 0.000000 0.000000 0.000000
						}
					}
				}
			}
		}
	}
	JOINT RHipJoint
	{
		OFFSET 0.000000 0.000000 0.000000
		CHANNELS 3 Zrotation Yrotation Xrotation
		JOINT RightUpLeg
		{
			OFFSET -1.305520 -1.794630 0.839290
			CHANNELS 3 Zrotation Yrotation Xrotation
			JOINT RightLeg
			{
				OFFSET -2.542530 -6.985550 0.000000
				CHANNELS 3 Zrotation Yrotation Xrotation
				JOINT RightFoot
				{
					OFFSET -2.568260 -7.056230 0.000000
					CHANNELS 3 Zrotation Yrotation Xrotation
					JOINT RightToeBase
					{
						OFFSET -0.164730 -0.452590 2.363150
						CHANNELS 3 Zrotation Yrotation Xrotation
						End Site
						{
							OFFSET 0.000000 0.000000 0.000000
						}
					}
				}
			}
		}
	}
}
MOTION
Frames: 11
Frame Time: 0.008333
6.866710 16.751195 4.384966 -175.035248 -85.062856 -162.032720 -9.562892 -1.376969 0.315419 -8.121702 2.945183 -45.129006 -2.368665 0.121553 16.204529 1.081092 6.441258 2.456104 1.629100 -0.000000 -36.079200 10.388430 -0.947299 -2.640951 2.185392 -5.976854 -20.406911 1.413512 -2.556477 36.903701 -0.743277 -2.272180 -5.238921 -0.202100 0.000001 -83.220800
6.788240 16.771632 4.427008 -172.834553 -84.294286 -163.960956 -9.568843 -1.361341 0.233236 -8.114266 3.421610 -45.140744 -2.377132 0.128552 16.258825 1.135780 6.674528 2.137124 1.636601 -0.000000 -35.956600 10.451205 -0.873961 -2.540401 2.086642 -5.402085 -21.907906 1.171285 -2.738882 39.135002 -0.712192 -2.239557 -3.536059 -0.277201 -0.000000 -83.439200
6.712514 16.791571 4.469151 -170.760994 -83.544916 -165.777666 -9.575752 -1.354000 0.142587 -8.078748 3.934845 -45.156922 -2.385584 0.138952 16.320011 1.181591 6.856791 1.847298 1.634600 0.000000 -35.845200 10.508059 -0.792857 -2.442436 2.049192 -4.831320 -23.369487 0.932587 -2.898000 41.273250 -0.704332 -2.274538 -1.885818 -0.345400 -0.000000 -83.194099
6.639188 16.810954 4.510709 -168.918871 -82.843262 -167.380236 -9.582158 -1.355125 0.047621 -8.028245 4.448498 -45.166733 -2.394369 0.150257 16.393270 1.219207 6.993708 1.564716 1.622500 -0.000000 -35.744000 10.559758 -0.706081 -2.353744 2.055697 -4.305916 -24.781040 0.706387 -3.037665 43.304621 -0.719461 -2.386262 -0.353599 -0.412000 -0.000001 -82.536100
6.568182 16.829914 4.551147 -167.318965 -82.207868 -168.765257 -9.588013 -1.363186 -0.049227 -7.969367 4.936382 -45.152531 -2.403181 0.160822 16.475383 1.249486 7.090195 1.273182 1.599600 -0.000001 -35.657600 10.605126 -0.614326 -2.282460 2.095924 -3.857230 -26.123672 0.499230 -3.160816 45.211988 -0.756628 -2.588514 1.002294 -0.484500 -0.000000 -81.545800
6.499211 16.848491 4.590132 -165.939941 -81.651935 -169.953498 -9.593348 -1.375112 -0.142010 -7.907447 5.374558 -45.112744 -2.411717 0.169508 16.565940 1.273646 7.151945 0.961347 1.566100 0.000000 -35.573600 10.643274 -0.518649 -2.232595 2.164368 -3.509696 -27.396193 0.315139 -3.270461 46.986483 -0.813823 -2.892021 2.140770 -0.570199 -0.000000 -80.338900
6.432120 16.866824 4.627445 -164.743422 -81.182010 -170.985161 -9.598395 -1.388177 -0.228335 -7.844697 5.750784 -45.037436 -2.419562 0.175167 16.654309 1.292491 7.183880 0.628338 1.523100 0.000000 -35.488301 10.673624 -0.419826 -2.208291 2.257600 -3.277115 -28.589244 0.156378 -3.369001 48.615748 -0.888628 -3.303694 3.032702 -0.674900 -0.000000 -79.018599
6.366699 16.885116 4.662927 -163.700130 -80.800933 -171.890987 -9.603585 -1.400107 -0.306254 -7.782694 6.056667 -44.914277 -2.425972 0.175925 16.720422 1.307058 7.194937 0.285426 1.474300 -0.000000 -35.409000 10.696175 -0.319243 -2.211293 2.371650 -3.164990 -29.696089 0.023818 -3.458643 50.088056 -0.978230 -3.821739 3.666992 -0.799900 0.000001 -77.675600
6.302835 16.903432 4.696620 -162.762271 -80.505077 -172.715954 -9.609335 -1.408782 -0.373142 -7.721850 6.293714 -44.747759 -2.430803 0.171412 16.754498 1.317701 7.188480 -0.055020 1.422300 0.000000 -35.326300 10.710829 -0.218117 -2.239283 2.506882 -3.168742 -30.721689 -0.083050 -3.540522 51.396544 -1.079477 -4.434286 4.050243 -0.942500 -0.000001 -76.379200
6.240232 16.921819 4.728587 -161.884097 -80.286770 -173.500568 -9.616152 -1.412793 -0.427963 -7.661782 6.469649 -44.541830 -2.434046 0.161386 16.744836 1.324442 7.167004 -0.375997 1.370400 0.000000 -35.238700 10.717679 -0.117842 -2.288503 2.663558 -3.276018 -31.669754 -0.165184 -3.615003 52.533653 -1.188885 -5.119573 4.202246 -1.095400 -0.000000 -75.171100
6.178723 16.940300 4.758999 -161.022810 -80.134808 -174.282879 -9.624409 -1.411447 -0.470667 -7.601974 6.597544 -44.304550 -2.436010 0.146215 16.683851 1.326939 7.130646 -0.660936 1.321301 -0.000000 -35.145500 10.716867 -0.019639 -2.353511 2.842118 -3.468285 -32.546600 -0.223879 -3.681814 53.493024 -1.302470 -5.846916 4.154624 -1.248599 0.000000 -74.068801
